<svg width="116" height="31" viewBox="0 0 116 31" fill="none" xmlns="http://www.w3.org/2000/svg">
<path d="M7.60656 0.683594H108.393C112.318 0.683594 115.5 3.86531 115.5 7.79015V23.0033C115.5 26.9281 112.318 30.1098 108.393 30.1098H7.60656C3.68171 30.1098 0.5 26.9281 0.5 23.0033V7.79015C0.5 3.86531 3.68171 0.683594 7.60656 0.683594Z" stroke="#00093C"/>
<path fill-rule="evenodd" clip-rule="evenodd" d="M64.567 7.78906C64.5299 10.7493 64.3279 12.4131 63.2178 13.5234C62.1077 14.6337 60.4443 14.8357 57.4844 14.8725V15.3102C60.4443 15.347 62.1077 15.549 63.2178 16.6593C64.3279 17.7696 64.5299 19.4334 64.567 22.3937H65.0044C65.0415 19.4334 65.2435 17.7696 66.3536 16.6593C67.4637 15.549 69.1272 15.3469 72.0875 15.3102V14.8725C69.1272 14.8357 67.4637 14.6337 66.3536 13.5234C65.2435 12.4131 65.0415 10.7493 65.0044 7.78906H64.567Z" fill="#00093C"/>
<path d="M14.9025 20.5689H16.8167V9.57288H14.0323C11.2322 9.57288 9.76092 11.0127 9.76092 13.1327C9.76092 14.8256 10.5677 15.8224 12.0074 16.8508L9.50781 20.5689H11.5803L14.3646 16.4078L13.3996 15.7591C12.2289 14.9681 11.6593 14.351 11.6593 13.022C11.6593 11.8512 12.482 11.0601 14.0482 11.0601H14.9025V20.5689ZM51.8107 20.7271C52.6807 20.7271 53.2978 20.5689 53.7566 20.2367V18.7019C53.2821 19.0342 52.7126 19.2399 51.9215 19.2399C50.5766 19.2399 50.0232 18.1957 50.0232 16.5502C50.0232 14.8256 50.7035 13.9397 51.9372 13.9397C52.665 13.9397 53.3767 14.1928 53.7566 14.4301V12.8321C53.361 12.6106 52.665 12.4524 51.7318 12.4524C49.3272 12.4524 48.0773 14.177 48.0773 16.5977C48.0773 19.2557 49.2953 20.7271 51.8107 20.7271ZM40.0406 20.031V18.4963C39.4552 18.8918 38.4744 19.2399 37.5568 19.2399C36.1805 19.2399 35.6584 18.5912 35.5793 17.2622H40.1197V16.2654C40.1197 13.4966 38.9015 12.4524 37.0189 12.4524C34.725 12.4524 33.6334 14.2086 33.6334 16.6135C33.6334 19.3823 34.994 20.7271 37.3986 20.7271C38.6009 20.7271 39.4869 20.4107 40.0406 20.031ZM22.7967 12.6106V15.7591H20.2813V12.6106H18.3987V20.5689H20.2813V17.2464H22.7967V20.5689H24.6793V12.6106H22.7967ZM33.1747 19.0817H32.3362V12.6106H26.8466V13.291C26.8466 15.237 26.7201 17.7526 26.0556 19.0817H25.4703V22.3884H27.2105V20.5689H31.4345V22.3884H33.1747V19.0817ZM46.0522 20.5689H48.1881L45.1663 16.2812L47.8239 12.6106H45.9256L43.2679 16.2812V12.6106H41.3853V20.5689H43.2679V16.661L46.0522 20.5689ZM36.9873 13.9397C37.9207 13.9397 38.2055 14.7149 38.2055 15.7117V15.8699H35.5793C35.6268 14.6041 36.0856 13.9397 36.9873 13.9397ZM30.4536 19.0817H27.7958C28.3179 17.8792 28.4603 15.7117 28.4603 14.3352V14.0979H30.4536V19.0817Z" fill="#00093C"/>
<path d="M77.1196 22.8616V20.5675H83.0047V22.8616H84.7927V19.0802H83.7644V9.57141H77.0407L76.851 15.0299C76.7877 16.8019 76.5976 18.2417 76.0913 19.0802H75.332V22.8616H77.1196ZM78.5277 15.283L78.6699 11.0586H81.8499V19.0802H77.895C78.2273 18.3366 78.4645 17.055 78.5277 15.283Z" fill="#00093C"/>
<path d="M88.0023 19.2391C87.0373 19.2391 86.0883 18.891 85.582 18.5113V20.046C85.9457 20.3466 86.8633 20.7264 88.2239 20.7264C90.233 20.7264 91.2931 19.8245 91.2931 18.2266C91.2931 17.293 90.7079 16.6602 89.6634 16.4387C90.6447 16.1223 91.0559 15.4261 91.0559 14.5401C91.0559 13.1952 89.9957 12.4517 88.2871 12.4517C87.0534 12.4517 86.2467 12.8314 85.7879 13.1161V14.6509C86.2937 14.3186 86.9902 13.9389 88.0185 13.9389C88.7145 13.9389 89.1576 14.2711 89.1576 14.8565C89.1576 15.4736 88.7777 15.8058 88.0023 15.8058H86.8162V17.2298H88.0023C88.9674 17.2298 89.3473 17.5146 89.3473 18.2107C89.3473 18.8436 88.8885 19.2391 88.0023 19.2391Z" fill="#00093C"/>
<path d="M98.4149 20.0302V18.4955C97.8292 18.891 96.8484 19.2391 95.9309 19.2391C94.5546 19.2391 94.0326 18.5904 93.9537 17.2614H98.4938V16.2646C98.4938 13.4959 97.2758 12.4517 95.3932 12.4517C93.0994 12.4517 92.0078 14.2078 92.0078 16.6127C92.0078 19.3815 93.368 20.7264 95.7731 20.7264C96.9754 20.7264 97.8611 20.4099 98.4149 20.0302ZM95.3614 13.9389C96.2951 13.9389 96.5798 14.7141 96.5798 15.7109V15.8691H93.9537C94.0012 14.6034 94.46 13.9389 95.3614 13.9389Z" fill="#00093C"/>
<path d="M104.156 12.6104V15.7588H101.64V12.6104H99.7578V20.5686H101.64V17.2461H104.156V20.5686H106.038V12.6104H104.156Z" fill="#00093C"/>
</svg>
